<?xml version="1.0" encoding="utf-8"?>
<!-- Generator: Adobe Illustrator 15.1.0, SVG Export Plug-In . SVG Version: 6.00 Build 0)  -->
<!DOCTYPE svg PUBLIC "-//W3C//DTD SVG 1.1//EN" "http://www.w3.org/Graphics/SVG/1.1/DTD/svg11.dtd">
<svg version="1.1" id="Layer_1" xmlns="http://www.w3.org/2000/svg" xmlns:xlink="http://www.w3.org/1999/xlink" x="0px" y="0px"
	 width="595.28px" height="419.53px" viewBox="0 0 595.28 419.53" enable-background="new 0 0 595.28 419.53" xml:space="preserve">
<path fill="none" stroke="#000000" d="M85.748,410.484"/>
<g>
	<g>
		<defs>
			<rect id="SVGID_1_" x="115.143" y="139.692" width="364.995" height="140.146"/>
		</defs>
		<clipPath id="SVGID_2_">
			<use xlink:href="#SVGID_1_"  overflow="visible"/>
		</clipPath>
		<path clip-path="url(#SVGID_2_)" d="M211.972,155.971c-0.536-0.92-1.077-1.391-1.623-1.398c0.418,0.25,0.833,0.746,1.244,1.555
			L211.972,155.971z M215.669,154.438l-0.069-0.166c-0.471-1.135-0.943-1.605-1.416-1.41c-0.019,0.008-0.025,0.029-0.043,0.037
			c0.252,0.217,0.503,0.607,0.754,1.213l0.229,0.553L215.669,154.438z M219.087,153.022c-0.614-1.178-1.215-1.688-1.799-1.447
			c-0.015,0.008-0.021,0.02-0.035,0.027c0.403,0.236,0.812,0.768,1.229,1.672L219.087,153.022z M222.821,151.477
			c-0.583-1.193-1.242-1.678-1.985-1.371c-0.003,0.002-0.003,0.006-0.006,0.008c0.46,0.211,0.886,0.738,1.268,1.662L222.821,151.477
			z M226.595,149.944c-0.045-0.246-0.109-0.494-0.213-0.746c-0.187-0.451-0.6-0.549-1.231-0.297c0.087,0.07,0.161,0.16,0.213,0.285
			c0.159,0.385,0.247,0.76,0.265,1.127C225.94,150.163,226.264,150.045,226.595,149.944 M233.545,151.442
			c-0.464-1.121-1.542-1.715-3.234-1.787c-0.298-0.014-0.588-0.008-0.874,0.01c1.483,0.119,2.457,0.676,2.882,1.699
			c0.344,0.832,0.296,1.695-0.141,2.588c-0.437,0.895-1.03,1.494-1.776,1.805c-0.517,0.213-1.315,0.318-2.393,0.314
			c-1.079-0.002-1.876,0.104-2.392,0.318c-1.207,0.5-3.508,3.475-6.902,8.928c-2.179-0.707-3.739-0.98-4.682-0.82l-25.291,22.441
			c-14.539,12.82-22.05,19.777-22.537,20.875c0.104,1.689-0.712,1.477-0.18,2.76c1.385,3.343,5.556,3.142,9.116,1.667
			c1.837-0.76,2.968-0.629,3.392,0.395c1.166,2.814-1.553,5.59-8.154,8.324c-3.961,1.641-8.592,5.523-10.49,9.383
			c-0.831,2.219-2.671,4.598-4.389,9.057c-1.467,3.604-3.778,5.885-6.935,7.191c-4.721,1.957-8.465,2.254-14.794-1.969
			c2.774,5.732,16.331,4.912,16.331,4.912c5.953,7.938,15.024,14.457,15.024,14.457c18.142,12.473,35.433-17.857,49.323-38.268
			c13.889-20.408,16.157-35.716,17.858-47.621c1.622-11.357-5.509-20.373-6.171-21.18c0.185-0.141,0.355-0.244,0.506-0.307
			c0.533-0.221,1.353-0.328,2.465-0.324c1.11,0.002,1.932-0.107,2.464-0.326c0.769-0.32,1.38-0.938,1.829-1.859
			C233.851,153.188,233.9,152.299,233.545,151.442"/>
		<path clip-path="url(#SVGID_2_)" fill="#68B9E2" d="M220.008,151.833c-4.465-4.252-18.315-9.09-18.315-9.09
			c-48.755-9.922-77.952,6.236-84.755,21.543c-5.82,13.094,4.119,37.168,7.116,43.857c0.332-0.164,0.66-0.33,1.016-0.479
			c1.492-0.617,3.817-1.336,6.975-2.158c3.156-0.818,5.481-1.539,6.974-2.158c2.984-1.236,5.561-3.539,7.73-6.912
			c1.222-2.08,2.484-3.484,5.04-7.543c2.41-1.984,3.564-3.641,7.008-5.066c2.985-1.236,4.73-1.246,5.233-0.031
			c0.345,0.832-0.164,2.203-1.523,4.115c-2.133,3.131-1.252,1.17-1.61,1.768c-1.202,2.295-1.43,4.34-0.689,6.129
			c0.875,2.111,3.375,1.35,4.762,1.449l43.18-36.707v-2.922l1.377-0.57c-0.494-1.518-0.541-2.361-0.139-2.529
			c0.746-0.309,1.481,0.25,2.206,1.674l1.98-0.82c-0.667-1.447-0.685-2.303-0.053-2.564c0.459-0.189,0.918,0.266,1.375,1.369
			l0.228,0.553l1.981-0.82c-0.329-0.467-0.568-0.883-0.721-1.252c-0.243-0.588-0.193-0.955,0.151-1.098
			c0.631-0.262,1.28,0.332,1.947,1.779l1.809-0.75C220.172,152.311,220.088,152.069,220.008,151.833"/>
		<path clip-path="url(#SVGID_2_)" fill="#68B9E2" d="M270.339,242.447c0,0-9.637,20.691-15.59,14.74c0,0-3.685-5.387,4.535-13.039
			c8.221-7.654,11.055-4.252,11.055-4.252S271.19,241.881,270.339,242.447 M344.607,261.156c5.953,0.85-3.686,3.969-3.686,3.969
			c-14.457,3.4-16.156-3.402-16.156-3.402c1.416-4.535,7.369-3.338,7.369-3.338S338.654,260.305,344.607,261.156 M246.245,258.037
			c0,0-1.433,1.4-3.969,1.984c-3.226,0.744-7.63,0.307-6.519-4.535l1.984-8.648c0,0,5.386-15.447,7.37-18.564
			c1.072-1.684,3.402-6.52,4.819-9.943c1.167-2.818-1.649-5.311-6.865-4.258c0,0-2.086,0.994-2.802,2.693
			c-3.778,8.969-16.979,39.855-7.908,46.092c0,0,7.287,3.684,16.258-1.418c0,0,9.538,8.854,18.608-6.805c0,0-2.551,8.504,6.52,8.504
			c9.071,0,13.039-3.4,13.039-3.4s3.119,9.354,17.576-4.252c0,0-2.834,6.52-3.686,9.922c0,0-17.291,15.627-2.834,14.191
			c0,0,5.102-0.869,8.787-13.059c0,0,1.701-1.701,2.268-2.551c0,0,8.787,0.85,10.771-0.852c0,0,12.473,16.953,33.449,0.285
			c0,0,12.188,1.701,17.291-4.252c0,0,11.339,15.023,24.095-7.654c0,0,6.521-15.59-3.402-16.441c0,0-6.235,1.418-1.7,9.072
			c0,0,1.133,4.818-2.552,10.205c0,0-1.094,2.307-2.267,3.4c-2.739,2.553-7.145,4.338-7.938-3.4c0,0,1.135-10.205,9.637-17.291
			c0,0,5.104-5.387-3.685-3.119c0,0-10.204,3.686-12.472,16.725c0,0-0.283,9.637-12.189,8.504c0,0,6.803-17.008-6.236-22.395
			c0,0-16.157-6.488-6.52-15.574c0,0,7.654-6.535,16.158-0.867c0,0,0.566,0.568,0.566,1.984c0,1.418,5.103,3.969,4.252-4.252
			c0,0-4.535-9.937-21.543-3.4c0,0-14.664,5.953-8.504,19.842c0,0,1.133,3.184,9.07,7.371c7.938,4.186,9.354,10.488,3.969,16.439
			c0,0-15.307-5.385-22.394-4.535s-5.386,5.953-11.056,6.52c-5.668,0.568-7.086-0.283-7.086-0.283s6.947-16.121,7.203-23.766
			c0.121-3.598-3.519-6.281-5.502-2.596c0,0-0.385,1.48-1.201,3.697c-1.039,2.818-2.224,5.361-3.901,9.48
			c-3.119,7.654-12.189,14.318-11.906,4.68l4.536-13.039c0,0,2.834-4.535-0.567-7.088c-3.402-2.551-7.949,8.789-7.949,8.789
			s-3.106,8.787-3.957,15.59c0,0-1.701,3.969-7.653,3.969c-5.953,0-3.969-5.953-3.969-5.953l7.087-15.59
			c0,0,3.118-5.385-1.985-5.953c0,0-2.551-0.852-5.385,3.119c0,0-8.504-4.82-16.725,1.133
			C256.733,236.494,245.395,246.066,246.245,258.037"/>
		<path clip-path="url(#SVGID_2_)" fill="#68B9E2" d="M179.985,260.873c2.834-24.096,16.653-36.852,20.905-41.457
			c4.252-4.607,30.827-17.716,29.055,10.275c-1.771,27.992-25.567,22.676-25.567,22.676
			C200.89,273.982,177.15,284.967,179.985,260.873 M200.536,232.881c0,0,7.795-6.025,7.441-1.773s-0.709,14.883-0.709,14.883
			s14.882,2.834,14.174-21.613c-0.709-24.449-43.583,25.865-32.245,42.164C189.197,266.541,195.93,270.793,200.536,232.881"/>
		<path clip-path="url(#SVGID_2_)" fill="#68B9E2" d="M454.592,254.068c-4.819,6.236-7.654,3.402-7.654,3.402
			c-4.535-5.67,8.504-17.291,8.504-17.291s3.969-3.686,6.521-1.701C464.513,240.463,459.41,247.834,454.592,254.068
			 M478.686,254.637c-1.417,3.117-5.396,4.252-5.396,4.252s-5.942,0.85-8.209,1.443c-2.269,0.592,5.669-18.451,7.652-23.271
			c1.984-4.818-1.983-5.102-1.983-5.102c-3.118-1.701-5.669,3.4-5.669,3.4c-21.26-8.504-26.363,18.426-26.363,18.426
			s-3.118,8.221-10.204,6.236c-7.087-1.984,1.134-15.307,2.268-19.559s0-6.803,0-6.803c-7.937-4.535-12.473,3.4-16.884,8.502
			c-4.412,5.104-0.69-4.25-0.124-7.369c0.567-3.117-0.851-3.4-3.401-3.686c-2.551-0.283-3.969,3.686-3.969,3.686l-4.818,19.844
			c-3.402,9.92,1.417,9.637,1.417,9.637c3.968-0.566,4.252-5.102,4.252-5.102c3.118-9.639,11.339-18.143,11.339-18.143
			c6.803-5.037,3.686,2.268,3.686,2.268c-1.701,3.969-3.97,13.041-3.97,13.041c0,14.738,20.693,3.967,20.693,3.967
			c11.905,11.055,20.409-9.637,19.559-3.4c-0.85,6.236-5.669,9.637-5.669,9.637c-4.818,2.553-6.804,6.52-6.804,6.52
			c-2.551,9.639,4.253,6.631,7.371,5.102c3.118-1.527,7.937-11.338,8.504-12.754c0.567-1.418,6.803-1.984,6.803-1.984
			s9.921,0.283,11.056-5.104C480.954,252.936,478.686,254.637,478.686,254.637"/>
	</g>
</g>
</svg>
